{
	"asset":{
		"generator":"Khronos glTF Blender I/O v4.2.70",
		"version":"2.0"
	},
	"extensionsUsed":[
		"KHR_materials_clearcoat"
	],
	"scene":0,
	"scenes":[
		{
			"name":"Scene",
			"nodes":[
				0,
				1,
				2,
				3,
				4,
				5,
				6,
				7,
				8,
				9,
				10,
				11,
				12
			]
		}
	],
	"nodes":[
		{
			"mesh":0,
			"name":"main_panels",
			"rotation":[
				0.0005232691182754934,
				0,
				0,
				1
			],
			"translation":[
				-9.016505241394043,
				0.13325591385364532,
				0.4534136652946472
			]
		},
		{
			"mesh":1,
			"name":"unit_shelves",
			"rotation":[
				0.0005232691182754934,
				0,
				0,
				1
			],
			"translation":[
				-9.016505241394043,
				0.13325591385364532,
				0.4534136652946472
			]
		},
		{
			"mesh":2,
			"name":"support_joists",
			"rotation":[
				0.0005232691182754934,
				0,
				0,
				1
			],
			"translation":[
				-9.016505241394043,
				0.13325591385364532,
				0.4534136652946472
			]
		},
		{
			"mesh":3,
			"name":"box_section",
			"rotation":[
				0.0005232691182754934,
				0,
				0,
				1
			],
			"translation":[
				-9.016505241394043,
				0.13325591385364532,
				0.4534136652946472
			]
		},
		{
			"mesh":4,
			"name":"Ceiling",
			"rotation":[
				0.0005232691182754934,
				0,
				0,
				1
			],
			"translation":[
				-9.016505241394043,
				0.13325591385364532,
				0.4534136652946472
			]
		},
		{
			"mesh":5,
			"name":"mid_panels",
			"rotation":[
				0.0005232691182754934,
				0,
				0,
				1
			],
			"translation":[
				-9.016505241394043,
				0.13325591385364532,
				0.4534136652946472
			]
		},
		{
			"mesh":6,
			"name":"hatch_panel",
			"rotation":[
				0.0005232691182754934,
				0,
				0,
				1
			],
			"translation":[
				-9.016505241394043,
				0.13325591385364532,
				0.4534136652946472
			]
		},
		{
			"mesh":7,
			"name":"int_panels",
			"rotation":[
				0.0005232691182754934,
				0,
				0,
				1
			],
			"translation":[
				-9.016505241394043,
				0.13325591385364532,
				0.4534136652946472
			]
		},
		{
			"mesh":8,
			"name":"joists",
			"rotation":[
				0.0005232691182754934,
				0,
				0,
				1
			],
			"translation":[
				-9.016505241394043,
				0.13325591385364532,
				0.4534136652946472
			]
		},
		{
			"mesh":9,
			"name":"Kallax",
			"rotation":[
				0.0005232691182754934,
				0,
				0,
				1
			],
			"translation":[
				-9.016505241394043,
				0.13325591385364532,
				0.4534136652946472
			]
		},
		{
			"mesh":10,
			"name":"loft_frame",
			"rotation":[
				0.0005232691182754934,
				0,
				0,
				1
			],
			"translation":[
				-9.016505241394043,
				0.13325591385364532,
				0.4534136652946472
			]
		},
		{
			"mesh":11,
			"name":"main_frame",
			"rotation":[
				0.0005232691182754934,
				0,
				0,
				1
			],
			"translation":[
				-9.016505241394043,
				0.13325591385364532,
				0.4534136652946472
			]
		},
		{
			"mesh":12,
			"name":"mid_frame",
			"rotation":[
				0.0005232691182754934,
				0,
				0,
				1
			],
			"translation":[
				-9.016505241394043,
				0.13325591385364532,
				0.4534136652946472
			]
		}
	],
	"materials":[
		{
			"doubleSided":true,
			"name":"main panels",
			"pbrMetallicRoughness":{
				"baseColorFactor":[
					0.054859839379787445,
					0.1042814701795578,
					0.07481074333190918,
					1
				],
				"metallicFactor":0.37288135290145874,
				"roughnessFactor":0.11864405870437622
			}
		},
		{
			"doubleSided":true,
			"name":"shelves",
			"pbrMetallicRoughness":{
				"baseColorFactor":[
					0.738845944404602,
					0.738845944404602,
					0.738845944404602,
					1
				],
				"metallicFactor":0.347457617521286,
				"roughnessFactor":0.5
			}
		},
		{
			"doubleSided":true,
			"name":"Material.001",
			"pbrMetallicRoughness":{
				"baseColorFactor":[
					0.1373940110206604,
					0.04577739164233208,
					0.024447428062558174,
					1
				],
				"metallicFactor":0,
				"roughnessFactor":0.8389830589294434
			}
		},
		{
			"doubleSided":true,
			"name":"box section",
			"pbrMetallicRoughness":{
				"baseColorFactor":[
					0.21994954347610474,
					0.21994954347610474,
					0.21994954347610474,
					1
				],
				"roughnessFactor":0.3644067645072937
			}
		},
		{
			"doubleSided":true,
			"extensions":{
				"KHR_materials_clearcoat":{
					"clearcoatRoughnessFactor":0.436779648065567
				}
			},
			"name":"ceiling",
			"pbrMetallicRoughness":{
				"baseColorFactor":[
					0.6351026296615601,
					0.6351026296615601,
					0.6351026296615601,
					1
				],
				"metallicFactor":0,
				"roughnessFactor":0.9067796468734741
			}
		},
		{
			"doubleSided":true,
			"name":"mid panels",
			"pbrMetallicRoughness":{
				"baseColorFactor":[
					0.800000011920929,
					0.800000011920929,
					0.800000011920929,
					1
				],
				"metallicFactor":0.45762714743614197,
				"roughnessFactor":0.24576270580291748
			}
		},
		{
			"doubleSided":true,
			"name":"Material.003"
		},
		{
			"doubleSided":true,
			"name":"Material.002",
			"pbrMetallicRoughness":{
				"baseColorFactor":[
					0.10429627448320389,
					0.025668609887361526,
					0.018102513626217842,
					1
				],
				"metallicFactor":0,
				"roughnessFactor":0.5
			}
		},
		{
			"doubleSided":true,
			"name":"frame",
			"pbrMetallicRoughness":{
				"baseColorFactor":[
					0.012272041290998459,
					0.012272041290998459,
					0.012272041290998459,
					1
				],
				"metallicFactor":0.7796609997749329,
				"roughnessFactor":0.2881355881690979
			}
		}
	],
	"meshes":[
		{
			"name":"main panels",
			"primitives":[
				{
					"attributes":{
						"POSITION":0,
						"NORMAL":1,
						"TEXCOORD_0":2,
						"COLOR_0":3,
						"COLOR_1":4
					},
					"indices":5,
					"material":0
				}
			]
		},
		{
			"name":"unit shelves",
			"primitives":[
				{
					"attributes":{
						"POSITION":6,
						"NORMAL":7,
						"TEXCOORD_0":8,
						"COLOR_0":9,
						"COLOR_1":10
					},
					"indices":11,
					"material":1
				}
			]
		},
		{
			"name":"support joists",
			"primitives":[
				{
					"attributes":{
						"POSITION":12,
						"NORMAL":13,
						"TEXCOORD_0":14,
						"COLOR_0":15,
						"COLOR_1":16
					},
					"indices":17,
					"material":2
				}
			]
		},
		{
			"name":"box section",
			"primitives":[
				{
					"attributes":{
						"POSITION":18,
						"NORMAL":19,
						"TEXCOORD_0":20,
						"COLOR_0":21,
						"COLOR_1":22
					},
					"indices":23,
					"material":3
				}
			]
		},
		{
			"name":"Ceiling",
			"primitives":[
				{
					"attributes":{
						"POSITION":24,
						"NORMAL":25,
						"TEXCOORD_0":26,
						"COLOR_0":27,
						"COLOR_1":28
					},
					"indices":29,
					"material":4
				}
			]
		},
		{
			"name":"mid panels",
			"primitives":[
				{
					"attributes":{
						"POSITION":30,
						"NORMAL":31,
						"TEXCOORD_0":32,
						"COLOR_0":33,
						"COLOR_1":34
					},
					"indices":35,
					"material":5
				}
			]
		},
		{
			"name":"hatch_panel",
			"primitives":[
				{
					"attributes":{
						"POSITION":36,
						"NORMAL":37,
						"TEXCOORD_0":38,
						"COLOR_0":39,
						"COLOR_1":40
					},
					"indices":41,
					"material":5
				}
			]
		},
		{
			"name":"int_panels",
			"primitives":[
				{
					"attributes":{
						"POSITION":42,
						"NORMAL":43,
						"TEXCOORD_0":44,
						"COLOR_0":45,
						"COLOR_1":46
					},
					"indices":47,
					"material":6
				}
			]
		},
		{
			"name":"joists",
			"primitives":[
				{
					"attributes":{
						"POSITION":48,
						"NORMAL":49,
						"TEXCOORD_0":50,
						"COLOR_0":51,
						"COLOR_1":52
					},
					"indices":53,
					"material":7
				}
			]
		},
		{
			"name":"Kallax",
			"primitives":[
				{
					"attributes":{
						"POSITION":54,
						"NORMAL":55,
						"TEXCOORD_0":56,
						"COLOR_0":57,
						"COLOR_1":58
					},
					"indices":59,
					"material":1
				}
			]
		},
		{
			"name":"loft_frame",
			"primitives":[
				{
					"attributes":{
						"POSITION":60,
						"NORMAL":61,
						"TEXCOORD_0":62,
						"COLOR_0":63,
						"COLOR_1":64
					},
					"indices":65,
					"material":8
				}
			]
		},
		{
			"name":"main_frame",
			"primitives":[
				{
					"attributes":{
						"POSITION":66,
						"NORMAL":67,
						"TEXCOORD_0":68,
						"COLOR_0":69,
						"COLOR_1":70
					},
					"indices":71,
					"material":8
				}
			]
		},
		{
			"name":"mid_frame",
			"primitives":[
				{
					"attributes":{
						"POSITION":72,
						"NORMAL":73,
						"TEXCOORD_0":74,
						"COLOR_0":75,
						"COLOR_1":76
					},
					"indices":77,
					"material":8
				}
			]
		}
	],
	"accessors":[
		{
			"bufferView":0,
			"componentType":5126,
			"count":120,
			"max":[
				9.568940162658691,
				1.7491999864578247,
				-0.10003399848937988
			],
			"min":[
				8.441539764404297,
				0.08952520042657852,
				-0.5116350054740906
			],
			"type":"VEC3"
		},
		{
			"bufferView":1,
			"componentType":5126,
			"count":120,
			"type":"VEC3"
		},
		{
			"bufferView":2,
			"componentType":5126,
			"count":120,
			"type":"VEC2"
		},
		{
			"bufferView":3,
			"componentType":5121,
			"count":120,
			"normalized":true,
			"type":"VEC4"
		},
		{
			"bufferView":4,
			"componentType":5126,
			"count":120,
			"type":"VEC3"
		},
		{
			"bufferView":5,
			"componentType":5123,
			"count":180,
			"type":"SCALAR"
		},
		{
			"bufferView":6,
			"componentType":5126,
			"count":312,
			"max":[
				9.530240058898926,
				1.5435999631881714,
				-0.10063400119543076
			],
			"min":[
				8.483240127563477,
				0.11359799653291702,
				-0.4906339943408966
			],
			"type":"VEC3"
		},
		{
			"bufferView":7,
			"componentType":5126,
			"count":312,
			"type":"VEC3"
		},
		{
			"bufferView":8,
			"componentType":5126,
			"count":312,
			"type":"VEC2"
		},
		{
			"bufferView":9,
			"componentType":5121,
			"count":312,
			"normalized":true,
			"type":"VEC4"
		},
		{
			"bufferView":10,
			"componentType":5126,
			"count":312,
			"type":"VEC3"
		},
		{
			"bufferView":11,
			"componentType":5123,
			"count":468,
			"type":"SCALAR"
		},
		{
			"bufferView":12,
			"componentType":5126,
			"count":48,
			"max":[
				10.123200416564941,
				2.6649999618530273,
				0.022803999483585358
			],
			"min":[
				7.843200206756592,
				2.5899999141693115,
				-0.6371960043907166
			],
			"type":"VEC3"
		},
		{
			"bufferView":13,
			"componentType":5126,
			"count":48,
			"type":"VEC3"
		},
		{
			"bufferView":14,
			"componentType":5126,
			"count":48,
			"type":"VEC2"
		},
		{
			"bufferView":15,
			"componentType":5121,
			"count":48,
			"normalized":true,
			"type":"VEC4"
		},
		{
			"bufferView":16,
			"componentType":5126,
			"count":48,
			"type":"VEC3"
		},
		{
			"bufferView":17,
			"componentType":5123,
			"count":72,
			"type":"SCALAR"
		},
		{
			"bufferView":18,
			"componentType":5126,
			"count":108,
			"max":[
				9.689200401306152,
				2.7249999046325684,
				1.0728000402450562
			],
			"min":[
				8.321200370788574,
				2.6649999618530273,
				-1.6971999406814575
			],
			"type":"VEC3"
		},
		{
			"bufferView":19,
			"componentType":5126,
			"count":108,
			"type":"VEC3"
		},
		{
			"bufferView":20,
			"componentType":5126,
			"count":108,
			"type":"VEC2"
		},
		{
			"bufferView":21,
			"componentType":5121,
			"count":108,
			"normalized":true,
			"type":"VEC4"
		},
		{
			"bufferView":22,
			"componentType":5126,
			"count":108,
			"type":"VEC3"
		},
		{
			"bufferView":23,
			"componentType":5123,
			"count":192,
			"type":"SCALAR"
		},
		{
			"bufferView":24,
			"componentType":5126,
			"count":48,
			"max":[
				10.600000381469727,
				2.5889999866485596,
				1.2699999809265137
			],
			"min":[
				6.438660144805908,
				2.5799999237060547,
				-1.850000023841858
			],
			"type":"VEC3"
		},
		{
			"bufferView":25,
			"componentType":5126,
			"count":48,
			"type":"VEC3"
		},
		{
			"bufferView":26,
			"componentType":5126,
			"count":48,
			"type":"VEC2"
		},
		{
			"bufferView":27,
			"componentType":5121,
			"count":48,
			"normalized":true,
			"type":"VEC4"
		},
		{
			"bufferView":28,
			"componentType":5126,
			"count":48,
			"type":"VEC3"
		},
		{
			"bufferView":29,
			"componentType":5123,
			"count":96,
			"type":"SCALAR"
		},
		{
			"bufferView":30,
			"componentType":5126,
			"count":96,
			"max":[
				9.607939720153809,
				3.3795299530029297,
				-0.08023469895124435
			],
			"min":[
				8.40254020690918,
				1.7295299768447876,
				-0.5316349864006042
			],
			"type":"VEC3"
		},
		{
			"bufferView":31,
			"componentType":5126,
			"count":96,
			"type":"VEC3"
		},
		{
			"bufferView":32,
			"componentType":5126,
			"count":96,
			"type":"VEC2"
		},
		{
			"bufferView":33,
			"componentType":5121,
			"count":96,
			"normalized":true,
			"type":"VEC4"
		},
		{
			"bufferView":34,
			"componentType":5126,
			"count":96,
			"type":"VEC3"
		},
		{
			"bufferView":35,
			"componentType":5123,
			"count":144,
			"type":"SCALAR"
		},
		{
			"bufferView":36,
			"componentType":5126,
			"count":236,
			"max":[
				9.630000114440918,
				0.07699999958276749,
				-0.07000000029802322
			],
			"min":[
				8.380000114440918,
				0.07199999690055847,
				-0.5400000214576721
			],
			"type":"VEC3"
		},
		{
			"bufferView":37,
			"componentType":5126,
			"count":236,
			"type":"VEC3"
		},
		{
			"bufferView":38,
			"componentType":5126,
			"count":236,
			"type":"VEC2"
		},
		{
			"bufferView":39,
			"componentType":5121,
			"count":236,
			"normalized":true,
			"type":"VEC4"
		},
		{
			"bufferView":40,
			"componentType":5126,
			"count":236,
			"type":"VEC3"
		},
		{
			"bufferView":41,
			"componentType":5123,
			"count":420,
			"type":"SCALAR"
		},
		{
			"bufferView":42,
			"componentType":5126,
			"count":26168,
			"max":[
				9.535840034484863,
				1.7395299673080444,
				-0.09983470290899277
			],
			"min":[
				8.474639892578125,
				0.08952520042657852,
				-0.5000349879264832
			],
			"type":"VEC3"
		},
		{
			"bufferView":43,
			"componentType":5126,
			"count":26168,
			"type":"VEC3"
		},
		{
			"bufferView":44,
			"componentType":5126,
			"count":26168,
			"type":"VEC2"
		},
		{
			"bufferView":45,
			"componentType":5121,
			"count":26168,
			"normalized":true,
			"type":"VEC4"
		},
		{
			"bufferView":46,
			"componentType":5126,
			"count":26168,
			"type":"VEC3"
		},
		{
			"bufferView":47,
			"componentType":5123,
			"count":62664,
			"type":"SCALAR"
		},
		{
			"bufferView":48,
			"componentType":5126,
			"count":426,
			"max":[
				10.45419979095459,
				5.243239879608154,
				1.2243000268936157
			],
			"min":[
				6.433199882507324,
				2.5899999141693115,
				-1.8676999807357788
			],
			"type":"VEC3"
		},
		{
			"bufferView":49,
			"componentType":5126,
			"count":426,
			"type":"VEC3"
		},
		{
			"bufferView":50,
			"componentType":5126,
			"count":426,
			"type":"VEC2"
		},
		{
			"bufferView":51,
			"componentType":5121,
			"count":426,
			"normalized":true,
			"type":"VEC4"
		},
		{
			"bufferView":52,
			"componentType":5126,
			"count":426,
			"type":"VEC3"
		},
		{
			"bufferView":53,
			"componentType":5123,
			"count":828,
			"type":"SCALAR"
		},
		{
			"bufferView":54,
			"componentType":5126,
			"count":404,
			"max":[
				9.526100158691406,
				1.4678800106048584,
				-0.11480700224637985
			],
			"min":[
				8.483200073242188,
				0.0979020968079567,
				-0.47926199436187744
			],
			"type":"VEC3"
		},
		{
			"bufferView":55,
			"componentType":5126,
			"count":404,
			"type":"VEC3"
		},
		{
			"bufferView":56,
			"componentType":5126,
			"count":404,
			"type":"VEC2"
		},
		{
			"bufferView":57,
			"componentType":5121,
			"count":404,
			"normalized":true,
			"type":"VEC4"
		},
		{
			"bufferView":58,
			"componentType":5126,
			"count":404,
			"type":"VEC3"
		},
		{
			"bufferView":59,
			"componentType":5123,
			"count":1092,
			"type":"SCALAR"
		},
		{
			"bufferView":60,
			"componentType":5126,
			"count":16207,
			"max":[
				9.648839950561523,
				4.442530155181885,
				-0.058334700763225555
			],
			"min":[
				8.361639976501465,
				2.5885300636291504,
				-0.553534984588623
			],
			"type":"VEC3"
		},
		{
			"bufferView":61,
			"componentType":5126,
			"count":16207,
			"type":"VEC3"
		},
		{
			"bufferView":62,
			"componentType":5126,
			"count":16207,
			"type":"VEC2"
		},
		{
			"bufferView":63,
			"componentType":5121,
			"count":16207,
			"normalized":true,
			"type":"VEC4"
		},
		{
			"bufferView":64,
			"componentType":5126,
			"count":16207,
			"type":"VEC3"
		},
		{
			"bufferView":65,
			"componentType":5123,
			"count":35256,
			"type":"SCALAR"
		},
		{
			"bufferView":66,
			"componentType":5126,
			"count":14128,
			"max":[
				9.570839881896973,
				1.9315299987792969,
				-0.09833350032567978
			],
			"min":[
				8.439640045166016,
				0.07752519845962524,
				-0.5135350227355957
			],
			"type":"VEC3"
		},
		{
			"bufferView":67,
			"componentType":5126,
			"count":14128,
			"type":"VEC3"
		},
		{
			"bufferView":68,
			"componentType":5126,
			"count":14128,
			"type":"VEC2"
		},
		{
			"bufferView":69,
			"componentType":5121,
			"count":14128,
			"normalized":true,
			"type":"VEC4"
		},
		{
			"bufferView":70,
			"componentType":5126,
			"count":14128,
			"type":"VEC3"
		},
		{
			"bufferView":71,
			"componentType":5123,
			"count":32232,
			"type":"SCALAR"
		},
		{
			"bufferView":72,
			"componentType":5126,
			"count":16775,
			"max":[
				9.609840393066406,
				3.5715301036834717,
				-0.07833469659090042
			],
			"min":[
				8.400639533996582,
				1.7175300121307373,
				-0.5335350036621094
			],
			"type":"VEC3"
		},
		{
			"bufferView":73,
			"componentType":5126,
			"count":16775,
			"type":"VEC3"
		},
		{
			"bufferView":74,
			"componentType":5126,
			"count":16775,
			"type":"VEC2"
		},
		{
			"bufferView":75,
			"componentType":5121,
			"count":16775,
			"normalized":true,
			"type":"VEC4"
		},
		{
			"bufferView":76,
			"componentType":5126,
			"count":16775,
			"type":"VEC3"
		},
		{
			"bufferView":77,
			"componentType":5123,
			"count":35814,
			"type":"SCALAR"
		}
	],
	"bufferViews":[
		{
			"buffer":0,
			"byteLength":1440,
			"byteOffset":0,
			"target":34962
		},
		{
			"buffer":0,
			"byteLength":1440,
			"byteOffset":1440,
			"target":34962
		},
		{
			"buffer":0,
			"byteLength":960,
			"byteOffset":2880,
			"target":34962
		},
		{
			"buffer":0,
			"byteLength":480,
			"byteOffset":3840,
			"target":34962
		},
		{
			"buffer":0,
			"byteLength":1440,
			"byteOffset":4320,
			"target":34962
		},
		{
			"buffer":0,
			"byteLength":360,
			"byteOffset":5760,
			"target":34963
		},
		{
			"buffer":0,
			"byteLength":3744,
			"byteOffset":6120,
			"target":34962
		},
		{
			"buffer":0,
			"byteLength":3744,
			"byteOffset":9864,
			"target":34962
		},
		{
			"buffer":0,
			"byteLength":2496,
			"byteOffset":13608,
			"target":34962
		},
		{
			"buffer":0,
			"byteLength":1248,
			"byteOffset":16104,
			"target":34962
		},
		{
			"buffer":0,
			"byteLength":3744,
			"byteOffset":17352,
			"target":34962
		},
		{
			"buffer":0,
			"byteLength":936,
			"byteOffset":21096,
			"target":34963
		},
		{
			"buffer":0,
			"byteLength":576,
			"byteOffset":22032,
			"target":34962
		},
		{
			"buffer":0,
			"byteLength":576,
			"byteOffset":22608,
			"target":34962
		},
		{
			"buffer":0,
			"byteLength":384,
			"byteOffset":23184,
			"target":34962
		},
		{
			"buffer":0,
			"byteLength":192,
			"byteOffset":23568,
			"target":34962
		},
		{
			"buffer":0,
			"byteLength":576,
			"byteOffset":23760,
			"target":34962
		},
		{
			"buffer":0,
			"byteLength":144,
			"byteOffset":24336,
			"target":34963
		},
		{
			"buffer":0,
			"byteLength":1296,
			"byteOffset":24480,
			"target":34962
		},
		{
			"buffer":0,
			"byteLength":1296,
			"byteOffset":25776,
			"target":34962
		},
		{
			"buffer":0,
			"byteLength":864,
			"byteOffset":27072,
			"target":34962
		},
		{
			"buffer":0,
			"byteLength":432,
			"byteOffset":27936,
			"target":34962
		},
		{
			"buffer":0,
			"byteLength":1296,
			"byteOffset":28368,
			"target":34962
		},
		{
			"buffer":0,
			"byteLength":384,
			"byteOffset":29664,
			"target":34963
		},
		{
			"buffer":0,
			"byteLength":576,
			"byteOffset":30048,
			"target":34962
		},
		{
			"buffer":0,
			"byteLength":576,
			"byteOffset":30624,
			"target":34962
		},
		{
			"buffer":0,
			"byteLength":384,
			"byteOffset":31200,
			"target":34962
		},
		{
			"buffer":0,
			"byteLength":192,
			"byteOffset":31584,
			"target":34962
		},
		{
			"buffer":0,
			"byteLength":576,
			"byteOffset":31776,
			"target":34962
		},
		{
			"buffer":0,
			"byteLength":192,
			"byteOffset":32352,
			"target":34963
		},
		{
			"buffer":0,
			"byteLength":1152,
			"byteOffset":32544,
			"target":34962
		},
		{
			"buffer":0,
			"byteLength":1152,
			"byteOffset":33696,
			"target":34962
		},
		{
			"buffer":0,
			"byteLength":768,
			"byteOffset":34848,
			"target":34962
		},
		{
			"buffer":0,
			"byteLength":384,
			"byteOffset":35616,
			"target":34962
		},
		{
			"buffer":0,
			"byteLength":1152,
			"byteOffset":36000,
			"target":34962
		},
		{
			"buffer":0,
			"byteLength":288,
			"byteOffset":37152,
			"target":34963
		},
		{
			"buffer":0,
			"byteLength":2832,
			"byteOffset":37440,
			"target":34962
		},
		{
			"buffer":0,
			"byteLength":2832,
			"byteOffset":40272,
			"target":34962
		},
		{
			"buffer":0,
			"byteLength":1888,
			"byteOffset":43104,
			"target":34962
		},
		{
			"buffer":0,
			"byteLength":944,
			"byteOffset":44992,
			"target":34962
		},
		{
			"buffer":0,
			"byteLength":2832,
			"byteOffset":45936,
			"target":34962
		},
		{
			"buffer":0,
			"byteLength":840,
			"byteOffset":48768,
			"target":34963
		},
		{
			"buffer":0,
			"byteLength":314016,
			"byteOffset":49608,
			"target":34962
		},
		{
			"buffer":0,
			"byteLength":314016,
			"byteOffset":363624,
			"target":34962
		},
		{
			"buffer":0,
			"byteLength":209344,
			"byteOffset":677640,
			"target":34962
		},
		{
			"buffer":0,
			"byteLength":104672,
			"byteOffset":886984,
			"target":34962
		},
		{
			"buffer":0,
			"byteLength":314016,
			"byteOffset":991656,
			"target":34962
		},
		{
			"buffer":0,
			"byteLength":125328,
			"byteOffset":1305672,
			"target":34963
		},
		{
			"buffer":0,
			"byteLength":5112,
			"byteOffset":1431000,
			"target":34962
		},
		{
			"buffer":0,
			"byteLength":5112,
			"byteOffset":1436112,
			"target":34962
		},
		{
			"buffer":0,
			"byteLength":3408,
			"byteOffset":1441224,
			"target":34962
		},
		{
			"buffer":0,
			"byteLength":1704,
			"byteOffset":1444632,
			"target":34962
		},
		{
			"buffer":0,
			"byteLength":5112,
			"byteOffset":1446336,
			"target":34962
		},
		{
			"buffer":0,
			"byteLength":1656,
			"byteOffset":1451448,
			"target":34963
		},
		{
			"buffer":0,
			"byteLength":4848,
			"byteOffset":1453104,
			"target":34962
		},
		{
			"buffer":0,
			"byteLength":4848,
			"byteOffset":1457952,
			"target":34962
		},
		{
			"buffer":0,
			"byteLength":3232,
			"byteOffset":1462800,
			"target":34962
		},
		{
			"buffer":0,
			"byteLength":1616,
			"byteOffset":1466032,
			"target":34962
		},
		{
			"buffer":0,
			"byteLength":4848,
			"byteOffset":1467648,
			"target":34962
		},
		{
			"buffer":0,
			"byteLength":2184,
			"byteOffset":1472496,
			"target":34963
		},
		{
			"buffer":0,
			"byteLength":194484,
			"byteOffset":1474680,
			"target":34962
		},
		{
			"buffer":0,
			"byteLength":194484,
			"byteOffset":1669164,
			"target":34962
		},
		{
			"buffer":0,
			"byteLength":129656,
			"byteOffset":1863648,
			"target":34962
		},
		{
			"buffer":0,
			"byteLength":64828,
			"byteOffset":1993304,
			"target":34962
		},
		{
			"buffer":0,
			"byteLength":194484,
			"byteOffset":2058132,
			"target":34962
		},
		{
			"buffer":0,
			"byteLength":70512,
			"byteOffset":2252616,
			"target":34963
		},
		{
			"buffer":0,
			"byteLength":169536,
			"byteOffset":2323128,
			"target":34962
		},
		{
			"buffer":0,
			"byteLength":169536,
			"byteOffset":2492664,
			"target":34962
		},
		{
			"buffer":0,
			"byteLength":113024,
			"byteOffset":2662200,
			"target":34962
		},
		{
			"buffer":0,
			"byteLength":56512,
			"byteOffset":2775224,
			"target":34962
		},
		{
			"buffer":0,
			"byteLength":169536,
			"byteOffset":2831736,
			"target":34962
		},
		{
			"buffer":0,
			"byteLength":64464,
			"byteOffset":3001272,
			"target":34963
		},
		{
			"buffer":0,
			"byteLength":201300,
			"byteOffset":3065736,
			"target":34962
		},
		{
			"buffer":0,
			"byteLength":201300,
			"byteOffset":3267036,
			"target":34962
		},
		{
			"buffer":0,
			"byteLength":134200,
			"byteOffset":3468336,
			"target":34962
		},
		{
			"buffer":0,
			"byteLength":67100,
			"byteOffset":3602536,
			"target":34962
		},
		{
			"buffer":0,
			"byteLength":201300,
			"byteOffset":3669636,
			"target":34962
		},
		{
			"buffer":0,
			"byteLength":71628,
			"byteOffset":3870936,
			"target":34963
		}
	],
	"buffers":[
		{
			"byteLength":3942564,
			"uri":"unitmain.bin"
		}
	]
}
